# xmcd
#
# Track frame offsets: 
#        150
#        14465
#        27527
#        40600
#        52140
#        64925
#        79207
#        93820
#        108122
#        122085
#        135642
#        149690
#        166115
#        181902
#        197855
#        210385
#        225015
#        240490
#        254367
#        266632
#        283752
#        298177
#        312357
#
# Disc length: 4360 seconds
#
# Revision: 2
# Processed by: cddbd v1.5.2PL0 Copyright (c) Steve Scherf et al.
# Submitted via: ExactAudioCopy v0.99pb5
#
DISCID=4b110617
DTITLE=Various Artist - Blues Document
DYEAR=1977
DGENRE=Blues
TTITLE0=Charley Patton - Mississippi Boweavil Blues
TTITLE1=Blind Lemon Jefferson - See That My Grave Is Kept Clean
TTITLE2=Son House - Preachin' The Blues, Part II
TTITLE3=Memphis Jug Band - K.C. Moan
TTITLE4=Skip James - Hard Time Killin' Floor Blues
TTITLE5=Washington Phillips - Denomination Blues, Part I
TTITLE6=Blind Willie McTell - Travellin' Blues
TTITLE7=Palmer McAbee - McAbee's Railroad Piece
TTITLE8=Texas Alexander and Lonnie Johnson - Levee Camp Moan Blues
TTITLE9=Mississippi John Hurt - Louis Collins
TTITLE10=Leroy Carr and Scrapper Blackwell - Midnight Hour Blues
TTITLE11=Tommy Johnson - Canned Heat Blues
TTITLE12=Memphis Minnie and Kansas Joe - Crazy Cryin' Blues
TTITLE13=Montana Taylor - Indiana Avenue Stomp
TTITLE14=Ma Rainey - Deep Moaning Blues (take 2)
TTITLE15=Charley Spand and Blind Blake - Hastings St.
TTITLE16=Muddy Waters - Country Blues No 1
TTITLE17=Jimmy Yancey - At The Window
TTITLE18=Sonny Boy Williamson - New Early In The Morning
TTITLE19=Mississippi Sheiks - The New Stop And Listen Blues
TTITLE20=Sleepy John Estes and Hammie Nixon - Floating Bridge
TTITLE21=Jesse James - Lonesome Day Blues
TTITLE22=Oscar Woods and Jimmie Davis - Saturday Night Stroll
EXTD=
EXTT0=
EXTT1=
EXTT2=
EXTT3=
EXTT4=
EXTT5=
EXTT6=
EXTT7=
EXTT8=
EXTT9=
EXTT10=
EXTT11=
EXTT12=
EXTT13=
EXTT14=
EXTT15=
EXTT16=
EXTT17=
EXTT18=
EXTT19=
EXTT20=
EXTT21=
EXTT22=
PLAYORDER=
